<mxfile host="app.diagrams.net" agent="Mozilla/5.0 (X11; Linux x86_64) AppleWebKit/537.36 (KHTML, like Gecko) Chrome/133.0.0.0 Safari/537.36" version="26.0.16">
  <diagram id="C5RBs43oDa-KdzZeNtuy" name="Page-1">
    <mxGraphModel dx="1434" dy="784" grid="1" gridSize="10" guides="1" tooltips="1" connect="1" arrows="1" fold="1" page="1" pageScale="1" pageWidth="827" pageHeight="1169" math="0" shadow="0">
      <root>
        <mxCell id="WIyWlLk6GJQsqaUBKTNV-0" />
        <mxCell id="WIyWlLk6GJQsqaUBKTNV-1" parent="WIyWlLk6GJQsqaUBKTNV-0" />
        <mxCell id="zkfFHV4jXpPFQw0GAbJ--0" value="User" style="swimlane;fontStyle=2;align=center;verticalAlign=top;childLayout=stackLayout;horizontal=1;startSize=26;horizontalStack=0;resizeParent=1;resizeLast=0;collapsible=1;marginBottom=0;rounded=0;shadow=0;strokeWidth=1;fillColor=#dae8fc;strokeColor=#6c8ebf;" parent="WIyWlLk6GJQsqaUBKTNV-1" vertex="1">
          <mxGeometry x="130" y="50" width="160" height="245" as="geometry">
            <mxRectangle x="230" y="140" width="160" height="26" as="alternateBounds" />
          </mxGeometry>
        </mxCell>
        <mxCell id="zkfFHV4jXpPFQw0GAbJ--1" value="id: uuid" style="text;align=left;verticalAlign=top;spacingLeft=4;spacingRight=4;overflow=hidden;rotatable=0;points=[[0,0.5],[1,0.5]];portConstraint=eastwest;fontStyle=4" parent="zkfFHV4jXpPFQw0GAbJ--0" vertex="1">
          <mxGeometry y="26" width="160" height="26" as="geometry" />
        </mxCell>
        <mxCell id="GSAFhW5PHIJksps5YWDW-0" value="name: String" style="text;align=left;verticalAlign=top;spacingLeft=4;spacingRight=4;overflow=hidden;rotatable=0;points=[[0,0.5],[1,0.5]];portConstraint=eastwest;" parent="zkfFHV4jXpPFQw0GAbJ--0" vertex="1">
          <mxGeometry y="52" width="160" height="26" as="geometry" />
        </mxCell>
        <mxCell id="GSAFhW5PHIJksps5YWDW-1" value="genre: String" style="text;align=left;verticalAlign=top;spacingLeft=4;spacingRight=4;overflow=hidden;rotatable=0;points=[[0,0.5],[1,0.5]];portConstraint=eastwest;rounded=0;shadow=0;html=0;" parent="zkfFHV4jXpPFQw0GAbJ--0" vertex="1">
          <mxGeometry y="78" width="160" height="25" as="geometry" />
        </mxCell>
        <mxCell id="GSAFhW5PHIJksps5YWDW-2" value="role: String" style="text;align=left;verticalAlign=top;spacingLeft=4;spacingRight=4;overflow=hidden;rotatable=0;points=[[0,0.5],[1,0.5]];portConstraint=eastwest;rounded=0;shadow=0;html=0;" parent="zkfFHV4jXpPFQw0GAbJ--0" vertex="1">
          <mxGeometry y="103" width="160" height="25" as="geometry" />
        </mxCell>
        <mxCell id="GSAFhW5PHIJksps5YWDW-3" value="password: String" style="text;align=left;verticalAlign=top;spacingLeft=4;spacingRight=4;overflow=hidden;rotatable=0;points=[[0,0.5],[1,0.5]];portConstraint=eastwest;rounded=0;shadow=0;html=0;" parent="zkfFHV4jXpPFQw0GAbJ--0" vertex="1">
          <mxGeometry y="128" width="160" height="26" as="geometry" />
        </mxCell>
        <mxCell id="GSAFhW5PHIJksps5YWDW-4" value="created_at: Datetime" style="text;align=left;verticalAlign=top;spacingLeft=4;spacingRight=4;overflow=hidden;rotatable=0;points=[[0,0.5],[1,0.5]];portConstraint=eastwest;rounded=0;shadow=0;html=0;" parent="zkfFHV4jXpPFQw0GAbJ--0" vertex="1">
          <mxGeometry y="154" width="160" height="25" as="geometry" />
        </mxCell>
        <mxCell id="zkfFHV4jXpPFQw0GAbJ--3" value="update_at: Datetime" style="text;align=left;verticalAlign=top;spacingLeft=4;spacingRight=4;overflow=hidden;rotatable=0;points=[[0,0.5],[1,0.5]];portConstraint=eastwest;rounded=0;shadow=0;html=0;" parent="zkfFHV4jXpPFQw0GAbJ--0" vertex="1">
          <mxGeometry y="179" width="160" height="26" as="geometry" />
        </mxCell>
        <mxCell id="zkfFHV4jXpPFQw0GAbJ--4" value="" style="line;html=1;strokeWidth=1;align=left;verticalAlign=middle;spacingTop=-1;spacingLeft=3;spacingRight=3;rotatable=0;labelPosition=right;points=[];portConstraint=eastwest;" parent="zkfFHV4jXpPFQw0GAbJ--0" vertex="1">
          <mxGeometry y="205" width="160" height="8" as="geometry" />
        </mxCell>
        <mxCell id="zkfFHV4jXpPFQw0GAbJ--5" value="Purchase Parking Pass" style="text;align=left;verticalAlign=top;spacingLeft=4;spacingRight=4;overflow=hidden;rotatable=0;points=[[0,0.5],[1,0.5]];portConstraint=eastwest;" parent="zkfFHV4jXpPFQw0GAbJ--0" vertex="1">
          <mxGeometry y="213" width="160" height="26" as="geometry" />
        </mxCell>
        <mxCell id="uGVkLpLAQE_LrdhUWMVq-37" style="edgeStyle=orthogonalEdgeStyle;rounded=0;orthogonalLoop=1;jettySize=auto;html=1;exitX=0.25;exitY=1;exitDx=0;exitDy=0;entryX=0.5;entryY=0;entryDx=0;entryDy=0;endArrow=none;startFill=0;" parent="WIyWlLk6GJQsqaUBKTNV-1" source="zkfFHV4jXpPFQw0GAbJ--6" target="uGVkLpLAQE_LrdhUWMVq-20" edge="1">
          <mxGeometry relative="1" as="geometry" />
        </mxCell>
        <mxCell id="uGVkLpLAQE_LrdhUWMVq-39" value="1" style="edgeLabel;html=1;align=center;verticalAlign=middle;resizable=0;points=[];" parent="uGVkLpLAQE_LrdhUWMVq-37" vertex="1" connectable="0">
          <mxGeometry x="0.8048" y="-1" relative="1" as="geometry">
            <mxPoint as="offset" />
          </mxGeometry>
        </mxCell>
        <mxCell id="uGVkLpLAQE_LrdhUWMVq-40" value="1" style="edgeLabel;html=1;align=center;verticalAlign=middle;resizable=0;points=[];" parent="uGVkLpLAQE_LrdhUWMVq-37" vertex="1" connectable="0">
          <mxGeometry x="-0.8194" y="2" relative="1" as="geometry">
            <mxPoint as="offset" />
          </mxGeometry>
        </mxCell>
        <mxCell id="zkfFHV4jXpPFQw0GAbJ--6" value="Student" style="swimlane;fontStyle=0;align=center;verticalAlign=top;childLayout=stackLayout;horizontal=1;startSize=26;horizontalStack=0;resizeParent=1;resizeLast=0;collapsible=1;marginBottom=0;rounded=0;shadow=0;strokeWidth=1;" parent="WIyWlLk6GJQsqaUBKTNV-1" vertex="1">
          <mxGeometry x="20" y="390" width="160" height="60" as="geometry">
            <mxRectangle x="130" y="380" width="160" height="26" as="alternateBounds" />
          </mxGeometry>
        </mxCell>
        <mxCell id="zkfFHV4jXpPFQw0GAbJ--9" value="" style="line;html=1;strokeWidth=1;align=left;verticalAlign=middle;spacingTop=-1;spacingLeft=3;spacingRight=3;rotatable=0;labelPosition=right;points=[];portConstraint=eastwest;" parent="zkfFHV4jXpPFQw0GAbJ--6" vertex="1">
          <mxGeometry y="26" width="160" height="8" as="geometry" />
        </mxCell>
        <mxCell id="zkfFHV4jXpPFQw0GAbJ--12" value="" style="endArrow=block;endSize=10;endFill=0;shadow=0;strokeWidth=1;rounded=0;curved=0;edgeStyle=elbowEdgeStyle;elbow=vertical;" parent="WIyWlLk6GJQsqaUBKTNV-1" source="zkfFHV4jXpPFQw0GAbJ--6" target="zkfFHV4jXpPFQw0GAbJ--0" edge="1">
          <mxGeometry width="160" relative="1" as="geometry">
            <mxPoint x="200" y="203" as="sourcePoint" />
            <mxPoint x="200" y="203" as="targetPoint" />
          </mxGeometry>
        </mxCell>
        <mxCell id="uGVkLpLAQE_LrdhUWMVq-3" style="edgeStyle=orthogonalEdgeStyle;rounded=0;orthogonalLoop=1;jettySize=auto;html=1;exitX=0.5;exitY=1;exitDx=0;exitDy=0;entryX=1;entryY=0.5;entryDx=0;entryDy=0;endArrow=none;startFill=0;" parent="WIyWlLk6GJQsqaUBKTNV-1" source="zkfFHV4jXpPFQw0GAbJ--13" target="GSAFhW5PHIJksps5YWDW-43" edge="1">
          <mxGeometry relative="1" as="geometry" />
        </mxCell>
        <mxCell id="uGVkLpLAQE_LrdhUWMVq-4" value="*" style="edgeLabel;html=1;align=center;verticalAlign=middle;resizable=0;points=[];" parent="uGVkLpLAQE_LrdhUWMVq-3" vertex="1" connectable="0">
          <mxGeometry x="0.6875" y="1" relative="1" as="geometry">
            <mxPoint x="-18" y="-12" as="offset" />
          </mxGeometry>
        </mxCell>
        <mxCell id="uGVkLpLAQE_LrdhUWMVq-5" value="1" style="edgeLabel;html=1;align=center;verticalAlign=middle;resizable=0;points=[];" parent="uGVkLpLAQE_LrdhUWMVq-3" vertex="1" connectable="0">
          <mxGeometry x="-0.6875" relative="1" as="geometry">
            <mxPoint as="offset" />
          </mxGeometry>
        </mxCell>
        <mxCell id="uGVkLpLAQE_LrdhUWMVq-32" style="edgeStyle=orthogonalEdgeStyle;rounded=0;orthogonalLoop=1;jettySize=auto;html=1;exitX=0.75;exitY=1;exitDx=0;exitDy=0;endArrow=none;startFill=0;" parent="WIyWlLk6GJQsqaUBKTNV-1" source="zkfFHV4jXpPFQw0GAbJ--13" target="GSAFhW5PHIJksps5YWDW-31" edge="1">
          <mxGeometry relative="1" as="geometry" />
        </mxCell>
        <mxCell id="uGVkLpLAQE_LrdhUWMVq-33" value="1" style="edgeLabel;html=1;align=center;verticalAlign=middle;resizable=0;points=[];" parent="uGVkLpLAQE_LrdhUWMVq-32" vertex="1" connectable="0">
          <mxGeometry x="-0.8608" relative="1" as="geometry">
            <mxPoint as="offset" />
          </mxGeometry>
        </mxCell>
        <mxCell id="uGVkLpLAQE_LrdhUWMVq-34" value="*" style="edgeLabel;html=1;align=center;verticalAlign=middle;resizable=0;points=[];" parent="uGVkLpLAQE_LrdhUWMVq-32" vertex="1" connectable="0">
          <mxGeometry x="0.8284" relative="1" as="geometry">
            <mxPoint as="offset" />
          </mxGeometry>
        </mxCell>
        <mxCell id="zkfFHV4jXpPFQw0GAbJ--13" value="Professor" style="swimlane;fontStyle=0;align=center;verticalAlign=top;childLayout=stackLayout;horizontal=1;startSize=26;horizontalStack=0;resizeParent=1;resizeLast=0;collapsible=1;marginBottom=0;rounded=0;shadow=0;strokeWidth=1;" parent="WIyWlLk6GJQsqaUBKTNV-1" vertex="1">
          <mxGeometry x="320" y="390" width="160" height="60" as="geometry">
            <mxRectangle x="340" y="380" width="170" height="26" as="alternateBounds" />
          </mxGeometry>
        </mxCell>
        <mxCell id="zkfFHV4jXpPFQw0GAbJ--15" value="" style="line;html=1;strokeWidth=1;align=left;verticalAlign=middle;spacingTop=-1;spacingLeft=3;spacingRight=3;rotatable=0;labelPosition=right;points=[];portConstraint=eastwest;" parent="zkfFHV4jXpPFQw0GAbJ--13" vertex="1">
          <mxGeometry y="26" width="160" height="8" as="geometry" />
        </mxCell>
        <mxCell id="zkfFHV4jXpPFQw0GAbJ--16" value="" style="endArrow=block;endSize=10;endFill=0;shadow=0;strokeWidth=1;rounded=0;curved=0;edgeStyle=elbowEdgeStyle;elbow=vertical;" parent="WIyWlLk6GJQsqaUBKTNV-1" source="zkfFHV4jXpPFQw0GAbJ--13" target="zkfFHV4jXpPFQw0GAbJ--0" edge="1">
          <mxGeometry width="160" relative="1" as="geometry">
            <mxPoint x="210" y="373" as="sourcePoint" />
            <mxPoint x="310" y="271" as="targetPoint" />
          </mxGeometry>
        </mxCell>
        <mxCell id="GSAFhW5PHIJksps5YWDW-23" value="Class" style="swimlane;fontStyle=0;align=center;verticalAlign=top;childLayout=stackLayout;horizontal=1;startSize=26;horizontalStack=0;resizeParent=1;resizeLast=0;collapsible=1;marginBottom=0;rounded=0;shadow=0;strokeWidth=1;fillColor=#dae8fc;strokeColor=#6c8ebf;" parent="WIyWlLk6GJQsqaUBKTNV-1" vertex="1">
          <mxGeometry x="180" y="500" width="160" height="232" as="geometry">
            <mxRectangle x="130" y="380" width="160" height="26" as="alternateBounds" />
          </mxGeometry>
        </mxCell>
        <mxCell id="GSAFhW5PHIJksps5YWDW-30" value="idStudent: uuid" style="text;align=left;verticalAlign=top;spacingLeft=4;spacingRight=4;overflow=hidden;rotatable=0;points=[[0,0.5],[1,0.5]];portConstraint=eastwest;fontStyle=6" parent="GSAFhW5PHIJksps5YWDW-23" vertex="1">
          <mxGeometry y="26" width="160" height="26" as="geometry" />
        </mxCell>
        <mxCell id="uGVkLpLAQE_LrdhUWMVq-2" value="idProfessor: uuid" style="text;align=left;verticalAlign=top;spacingLeft=4;spacingRight=4;overflow=hidden;rotatable=0;points=[[0,0.5],[1,0.5]];portConstraint=eastwest;fontStyle=6" parent="GSAFhW5PHIJksps5YWDW-23" vertex="1">
          <mxGeometry y="52" width="160" height="26" as="geometry" />
        </mxCell>
        <mxCell id="GSAFhW5PHIJksps5YWDW-43" value="date: Date" style="text;align=left;verticalAlign=top;spacingLeft=4;spacingRight=4;overflow=hidden;rotatable=0;points=[[0,0.5],[1,0.5]];portConstraint=eastwest;fontStyle=4" parent="GSAFhW5PHIJksps5YWDW-23" vertex="1">
          <mxGeometry y="78" width="160" height="26" as="geometry" />
        </mxCell>
        <mxCell id="GSAFhW5PHIJksps5YWDW-24" value="level: String" style="text;align=left;verticalAlign=top;spacingLeft=4;spacingRight=4;overflow=hidden;rotatable=0;points=[[0,0.5],[1,0.5]];portConstraint=eastwest;" parent="GSAFhW5PHIJksps5YWDW-23" vertex="1">
          <mxGeometry y="104" width="160" height="26" as="geometry" />
        </mxCell>
        <mxCell id="GSAFhW5PHIJksps5YWDW-29" value="field: String" style="text;align=left;verticalAlign=top;spacingLeft=4;spacingRight=4;overflow=hidden;rotatable=0;points=[[0,0.5],[1,0.5]];portConstraint=eastwest;" parent="GSAFhW5PHIJksps5YWDW-23" vertex="1">
          <mxGeometry y="130" width="160" height="26" as="geometry" />
        </mxCell>
        <mxCell id="GSAFhW5PHIJksps5YWDW-42" value="cycle: String" style="text;align=left;verticalAlign=top;spacingLeft=4;spacingRight=4;overflow=hidden;rotatable=0;points=[[0,0.5],[1,0.5]];portConstraint=eastwest;rounded=0;shadow=0;html=0;" parent="GSAFhW5PHIJksps5YWDW-23" vertex="1">
          <mxGeometry y="156" width="160" height="26" as="geometry" />
        </mxCell>
        <mxCell id="GSAFhW5PHIJksps5YWDW-25" value="cycle: String" style="text;align=left;verticalAlign=top;spacingLeft=4;spacingRight=4;overflow=hidden;rotatable=0;points=[[0,0.5],[1,0.5]];portConstraint=eastwest;rounded=0;shadow=0;html=0;" parent="GSAFhW5PHIJksps5YWDW-23" vertex="1">
          <mxGeometry y="182" width="160" height="26" as="geometry" />
        </mxCell>
        <mxCell id="GSAFhW5PHIJksps5YWDW-26" value="" style="line;html=1;strokeWidth=1;align=left;verticalAlign=middle;spacingTop=-1;spacingLeft=3;spacingRight=3;rotatable=0;labelPosition=right;points=[];portConstraint=eastwest;" parent="GSAFhW5PHIJksps5YWDW-23" vertex="1">
          <mxGeometry y="208" width="160" height="8" as="geometry" />
        </mxCell>
        <mxCell id="GSAFhW5PHIJksps5YWDW-31" value="Exercise" style="swimlane;fontStyle=0;align=center;verticalAlign=top;childLayout=stackLayout;horizontal=1;startSize=26;horizontalStack=0;resizeParent=1;resizeLast=0;collapsible=1;marginBottom=0;rounded=0;shadow=0;strokeWidth=1;fillColor=#dae8fc;strokeColor=#6c8ebf;" parent="WIyWlLk6GJQsqaUBKTNV-1" vertex="1">
          <mxGeometry x="440" y="650" width="160" height="210" as="geometry">
            <mxRectangle x="550" y="140" width="160" height="26" as="alternateBounds" />
          </mxGeometry>
        </mxCell>
        <mxCell id="GSAFhW5PHIJksps5YWDW-32" value="id: uuid" style="text;align=left;verticalAlign=top;spacingLeft=4;spacingRight=4;overflow=hidden;rotatable=0;points=[[0,0.5],[1,0.5]];portConstraint=eastwest;fontStyle=4" parent="GSAFhW5PHIJksps5YWDW-31" vertex="1">
          <mxGeometry y="26" width="160" height="26" as="geometry" />
        </mxCell>
        <mxCell id="GSAFhW5PHIJksps5YWDW-33" value="title: String" style="text;align=left;verticalAlign=top;spacingLeft=4;spacingRight=4;overflow=hidden;rotatable=0;points=[[0,0.5],[1,0.5]];portConstraint=eastwest;rounded=0;shadow=0;html=0;" parent="GSAFhW5PHIJksps5YWDW-31" vertex="1">
          <mxGeometry y="52" width="160" height="26" as="geometry" />
        </mxCell>
        <mxCell id="GSAFhW5PHIJksps5YWDW-34" value="link: String" style="text;align=left;verticalAlign=top;spacingLeft=4;spacingRight=4;overflow=hidden;rotatable=0;points=[[0,0.5],[1,0.5]];portConstraint=eastwest;rounded=0;shadow=0;html=0;" parent="GSAFhW5PHIJksps5YWDW-31" vertex="1">
          <mxGeometry y="78" width="160" height="26" as="geometry" />
        </mxCell>
        <mxCell id="GSAFhW5PHIJksps5YWDW-36" value="senderId: Professor" style="text;align=left;verticalAlign=top;spacingLeft=4;spacingRight=4;overflow=hidden;rotatable=0;points=[[0,0.5],[1,0.5]];portConstraint=eastwest;rounded=0;shadow=0;html=0;fontStyle=2" parent="GSAFhW5PHIJksps5YWDW-31" vertex="1">
          <mxGeometry y="104" width="160" height="26" as="geometry" />
        </mxCell>
        <mxCell id="GSAFhW5PHIJksps5YWDW-37" value="classId: Class" style="text;align=left;verticalAlign=top;spacingLeft=4;spacingRight=4;overflow=hidden;rotatable=0;points=[[0,0.5],[1,0.5]];portConstraint=eastwest;rounded=0;shadow=0;html=0;fontStyle=2" parent="GSAFhW5PHIJksps5YWDW-31" vertex="1">
          <mxGeometry y="130" width="160" height="26" as="geometry" />
        </mxCell>
        <mxCell id="GSAFhW5PHIJksps5YWDW-38" value="created_at: Datetime" style="text;align=left;verticalAlign=top;spacingLeft=4;spacingRight=4;overflow=hidden;rotatable=0;points=[[0,0.5],[1,0.5]];portConstraint=eastwest;rounded=0;shadow=0;html=0;" parent="GSAFhW5PHIJksps5YWDW-31" vertex="1">
          <mxGeometry y="156" width="160" height="26" as="geometry" />
        </mxCell>
        <mxCell id="GSAFhW5PHIJksps5YWDW-39" value="" style="line;html=1;strokeWidth=1;align=left;verticalAlign=middle;spacingTop=-1;spacingLeft=3;spacingRight=3;rotatable=0;labelPosition=right;points=[];portConstraint=eastwest;" parent="GSAFhW5PHIJksps5YWDW-31" vertex="1">
          <mxGeometry y="182" width="160" height="8" as="geometry" />
        </mxCell>
        <mxCell id="uGVkLpLAQE_LrdhUWMVq-17" style="edgeStyle=orthogonalEdgeStyle;rounded=0;orthogonalLoop=1;jettySize=auto;html=1;entryX=0.5;entryY=1;entryDx=0;entryDy=0;endArrow=none;startFill=0;exitX=0.5;exitY=0;exitDx=0;exitDy=0;" parent="WIyWlLk6GJQsqaUBKTNV-1" source="GSAFhW5PHIJksps5YWDW-23" target="zkfFHV4jXpPFQw0GAbJ--6" edge="1">
          <mxGeometry relative="1" as="geometry">
            <mxPoint x="179" y="690" as="sourcePoint" />
            <mxPoint x="178.72000000000003" y="598.598" as="targetPoint" />
          </mxGeometry>
        </mxCell>
        <mxCell id="uGVkLpLAQE_LrdhUWMVq-18" value="1" style="edgeLabel;html=1;align=center;verticalAlign=middle;resizable=0;points=[];" parent="uGVkLpLAQE_LrdhUWMVq-17" vertex="1" connectable="0">
          <mxGeometry x="-0.5733" relative="1" as="geometry">
            <mxPoint as="offset" />
          </mxGeometry>
        </mxCell>
        <mxCell id="uGVkLpLAQE_LrdhUWMVq-19" value="*" style="edgeLabel;html=1;align=center;verticalAlign=middle;resizable=0;points=[];" parent="uGVkLpLAQE_LrdhUWMVq-17" vertex="1" connectable="0">
          <mxGeometry x="0.68" y="2" relative="1" as="geometry">
            <mxPoint as="offset" />
          </mxGeometry>
        </mxCell>
        <mxCell id="uGVkLpLAQE_LrdhUWMVq-38" style="edgeStyle=orthogonalEdgeStyle;rounded=0;orthogonalLoop=1;jettySize=auto;html=1;entryX=0;entryY=0.5;entryDx=0;entryDy=0;endArrow=none;startFill=0;" parent="WIyWlLk6GJQsqaUBKTNV-1" source="uGVkLpLAQE_LrdhUWMVq-20" target="GSAFhW5PHIJksps5YWDW-36" edge="1">
          <mxGeometry relative="1" as="geometry" />
        </mxCell>
        <mxCell id="uGVkLpLAQE_LrdhUWMVq-41" value="0..1" style="edgeLabel;html=1;align=center;verticalAlign=middle;resizable=0;points=[];" parent="uGVkLpLAQE_LrdhUWMVq-38" vertex="1" connectable="0">
          <mxGeometry x="-0.8804" y="-1" relative="1" as="geometry">
            <mxPoint as="offset" />
          </mxGeometry>
        </mxCell>
        <mxCell id="uGVkLpLAQE_LrdhUWMVq-42" value="1" style="edgeLabel;html=1;align=center;verticalAlign=middle;resizable=0;points=[];" parent="uGVkLpLAQE_LrdhUWMVq-38" vertex="1" connectable="0">
          <mxGeometry x="0.8315" relative="1" as="geometry">
            <mxPoint as="offset" />
          </mxGeometry>
        </mxCell>
        <mxCell id="uGVkLpLAQE_LrdhUWMVq-20" value="StudentAnswer" style="swimlane;fontStyle=0;align=center;verticalAlign=top;childLayout=stackLayout;horizontal=1;startSize=26;horizontalStack=0;resizeParent=1;resizeLast=0;collapsible=1;marginBottom=0;rounded=0;shadow=0;strokeWidth=1;fillColor=#dae8fc;strokeColor=#6c8ebf;" parent="WIyWlLk6GJQsqaUBKTNV-1" vertex="1">
          <mxGeometry x="40" y="770" width="160" height="210" as="geometry">
            <mxRectangle x="550" y="140" width="160" height="26" as="alternateBounds" />
          </mxGeometry>
        </mxCell>
        <mxCell id="uGVkLpLAQE_LrdhUWMVq-21" value="id: uuid" style="text;align=left;verticalAlign=top;spacingLeft=4;spacingRight=4;overflow=hidden;rotatable=0;points=[[0,0.5],[1,0.5]];portConstraint=eastwest;" parent="uGVkLpLAQE_LrdhUWMVq-20" vertex="1">
          <mxGeometry y="26" width="160" height="26" as="geometry" />
        </mxCell>
        <mxCell id="uGVkLpLAQE_LrdhUWMVq-22" value="title: String" style="text;align=left;verticalAlign=top;spacingLeft=4;spacingRight=4;overflow=hidden;rotatable=0;points=[[0,0.5],[1,0.5]];portConstraint=eastwest;rounded=0;shadow=0;html=0;" parent="uGVkLpLAQE_LrdhUWMVq-20" vertex="1">
          <mxGeometry y="52" width="160" height="26" as="geometry" />
        </mxCell>
        <mxCell id="uGVkLpLAQE_LrdhUWMVq-23" value="link: String" style="text;align=left;verticalAlign=top;spacingLeft=4;spacingRight=4;overflow=hidden;rotatable=0;points=[[0,0.5],[1,0.5]];portConstraint=eastwest;rounded=0;shadow=0;html=0;" parent="uGVkLpLAQE_LrdhUWMVq-20" vertex="1">
          <mxGeometry y="78" width="160" height="26" as="geometry" />
        </mxCell>
        <mxCell id="uGVkLpLAQE_LrdhUWMVq-25" value="senderId: Student" style="text;align=left;verticalAlign=top;spacingLeft=4;spacingRight=4;overflow=hidden;rotatable=0;points=[[0,0.5],[1,0.5]];portConstraint=eastwest;rounded=0;shadow=0;html=0;" parent="uGVkLpLAQE_LrdhUWMVq-20" vertex="1">
          <mxGeometry y="104" width="160" height="26" as="geometry" />
        </mxCell>
        <mxCell id="uGVkLpLAQE_LrdhUWMVq-26" value="questionId: Question" style="text;align=left;verticalAlign=top;spacingLeft=4;spacingRight=4;overflow=hidden;rotatable=0;points=[[0,0.5],[1,0.5]];portConstraint=eastwest;rounded=0;shadow=0;html=0;" parent="uGVkLpLAQE_LrdhUWMVq-20" vertex="1">
          <mxGeometry y="130" width="160" height="26" as="geometry" />
        </mxCell>
        <mxCell id="uGVkLpLAQE_LrdhUWMVq-27" value="created_at: Datetime" style="text;align=left;verticalAlign=top;spacingLeft=4;spacingRight=4;overflow=hidden;rotatable=0;points=[[0,0.5],[1,0.5]];portConstraint=eastwest;rounded=0;shadow=0;html=0;" parent="uGVkLpLAQE_LrdhUWMVq-20" vertex="1">
          <mxGeometry y="156" width="160" height="26" as="geometry" />
        </mxCell>
        <mxCell id="uGVkLpLAQE_LrdhUWMVq-28" value="" style="line;html=1;strokeWidth=1;align=left;verticalAlign=middle;spacingTop=-1;spacingLeft=3;spacingRight=3;rotatable=0;labelPosition=right;points=[];portConstraint=eastwest;" parent="uGVkLpLAQE_LrdhUWMVq-20" vertex="1">
          <mxGeometry y="182" width="160" height="8" as="geometry" />
        </mxCell>
        <mxCell id="uGVkLpLAQE_LrdhUWMVq-31" style="edgeStyle=orthogonalEdgeStyle;rounded=0;orthogonalLoop=1;jettySize=auto;html=1;exitX=0;exitY=0.5;exitDx=0;exitDy=0;entryX=1;entryY=0.5;entryDx=0;entryDy=0;endArrow=none;startFill=0;" parent="WIyWlLk6GJQsqaUBKTNV-1" source="GSAFhW5PHIJksps5YWDW-34" target="GSAFhW5PHIJksps5YWDW-42" edge="1">
          <mxGeometry relative="1" as="geometry">
            <mxPoint x="430" y="887" as="sourcePoint" />
          </mxGeometry>
        </mxCell>
        <mxCell id="uGVkLpLAQE_LrdhUWMVq-35" value="*" style="edgeLabel;html=1;align=center;verticalAlign=middle;resizable=0;points=[];" parent="uGVkLpLAQE_LrdhUWMVq-31" vertex="1" connectable="0">
          <mxGeometry x="-0.8222" y="2" relative="1" as="geometry">
            <mxPoint as="offset" />
          </mxGeometry>
        </mxCell>
        <mxCell id="uGVkLpLAQE_LrdhUWMVq-36" value="1" style="edgeLabel;html=1;align=center;verticalAlign=middle;resizable=0;points=[];" parent="uGVkLpLAQE_LrdhUWMVq-31" vertex="1" connectable="0">
          <mxGeometry x="0.8444" y="2" relative="1" as="geometry">
            <mxPoint as="offset" />
          </mxGeometry>
        </mxCell>
        <mxCell id="uGVkLpLAQE_LrdhUWMVq-63" style="edgeStyle=orthogonalEdgeStyle;rounded=0;orthogonalLoop=1;jettySize=auto;html=1;exitX=0.5;exitY=1;exitDx=0;exitDy=0;entryX=1;entryY=0.5;entryDx=0;entryDy=0;endArrow=none;startFill=0;" parent="WIyWlLk6GJQsqaUBKTNV-1" source="uGVkLpLAQE_LrdhUWMVq-43" target="uGVkLpLAQE_LrdhUWMVq-57" edge="1">
          <mxGeometry relative="1" as="geometry" />
        </mxCell>
        <mxCell id="uGVkLpLAQE_LrdhUWMVq-66" value="1" style="edgeLabel;html=1;align=center;verticalAlign=middle;resizable=0;points=[];" parent="uGVkLpLAQE_LrdhUWMVq-63" vertex="1" connectable="0">
          <mxGeometry x="0.9169" y="-2" relative="1" as="geometry">
            <mxPoint as="offset" />
          </mxGeometry>
        </mxCell>
        <mxCell id="uGVkLpLAQE_LrdhUWMVq-67" value="1" style="edgeLabel;html=1;align=center;verticalAlign=middle;resizable=0;points=[];" parent="uGVkLpLAQE_LrdhUWMVq-63" vertex="1" connectable="0">
          <mxGeometry x="-0.9185" y="-1" relative="1" as="geometry">
            <mxPoint as="offset" />
          </mxGeometry>
        </mxCell>
        <mxCell id="uGVkLpLAQE_LrdhUWMVq-43" value="AIAnswer" style="swimlane;fontStyle=0;align=center;verticalAlign=top;childLayout=stackLayout;horizontal=1;startSize=26;horizontalStack=0;resizeParent=1;resizeLast=0;collapsible=1;marginBottom=0;rounded=0;shadow=0;strokeWidth=1;fillColor=#dae8fc;strokeColor=#6c8ebf;" parent="WIyWlLk6GJQsqaUBKTNV-1" vertex="1">
          <mxGeometry x="640" y="375" width="160" height="210" as="geometry">
            <mxRectangle x="550" y="140" width="160" height="26" as="alternateBounds" />
          </mxGeometry>
        </mxCell>
        <mxCell id="uGVkLpLAQE_LrdhUWMVq-44" value="id: uuid" style="text;align=left;verticalAlign=top;spacingLeft=4;spacingRight=4;overflow=hidden;rotatable=0;points=[[0,0.5],[1,0.5]];portConstraint=eastwest;" parent="uGVkLpLAQE_LrdhUWMVq-43" vertex="1">
          <mxGeometry y="26" width="160" height="26" as="geometry" />
        </mxCell>
        <mxCell id="uGVkLpLAQE_LrdhUWMVq-45" value="title: String" style="text;align=left;verticalAlign=top;spacingLeft=4;spacingRight=4;overflow=hidden;rotatable=0;points=[[0,0.5],[1,0.5]];portConstraint=eastwest;rounded=0;shadow=0;html=0;" parent="uGVkLpLAQE_LrdhUWMVq-43" vertex="1">
          <mxGeometry y="52" width="160" height="26" as="geometry" />
        </mxCell>
        <mxCell id="uGVkLpLAQE_LrdhUWMVq-46" value="content: Text" style="text;align=left;verticalAlign=top;spacingLeft=4;spacingRight=4;overflow=hidden;rotatable=0;points=[[0,0.5],[1,0.5]];portConstraint=eastwest;rounded=0;shadow=0;html=0;" parent="uGVkLpLAQE_LrdhUWMVq-43" vertex="1">
          <mxGeometry y="78" width="160" height="26" as="geometry" />
        </mxCell>
        <mxCell id="uGVkLpLAQE_LrdhUWMVq-47" value="senderId: Student" style="text;align=left;verticalAlign=top;spacingLeft=4;spacingRight=4;overflow=hidden;rotatable=0;points=[[0,0.5],[1,0.5]];portConstraint=eastwest;rounded=0;shadow=0;html=0;" parent="uGVkLpLAQE_LrdhUWMVq-43" vertex="1">
          <mxGeometry y="104" width="160" height="26" as="geometry" />
        </mxCell>
        <mxCell id="uGVkLpLAQE_LrdhUWMVq-48" value="exerciseId: Exercise" style="text;align=left;verticalAlign=top;spacingLeft=4;spacingRight=4;overflow=hidden;rotatable=0;points=[[0,0.5],[1,0.5]];portConstraint=eastwest;rounded=0;shadow=0;html=0;" parent="uGVkLpLAQE_LrdhUWMVq-43" vertex="1">
          <mxGeometry y="130" width="160" height="26" as="geometry" />
        </mxCell>
        <mxCell id="uGVkLpLAQE_LrdhUWMVq-49" value="created_at: Datetime" style="text;align=left;verticalAlign=top;spacingLeft=4;spacingRight=4;overflow=hidden;rotatable=0;points=[[0,0.5],[1,0.5]];portConstraint=eastwest;rounded=0;shadow=0;html=0;" parent="uGVkLpLAQE_LrdhUWMVq-43" vertex="1">
          <mxGeometry y="156" width="160" height="26" as="geometry" />
        </mxCell>
        <mxCell id="uGVkLpLAQE_LrdhUWMVq-50" value="" style="line;html=1;strokeWidth=1;align=left;verticalAlign=middle;spacingTop=-1;spacingLeft=3;spacingRight=3;rotatable=0;labelPosition=right;points=[];portConstraint=eastwest;" parent="uGVkLpLAQE_LrdhUWMVq-43" vertex="1">
          <mxGeometry y="182" width="160" height="8" as="geometry" />
        </mxCell>
        <mxCell id="uGVkLpLAQE_LrdhUWMVq-51" style="edgeStyle=orthogonalEdgeStyle;rounded=0;orthogonalLoop=1;jettySize=auto;html=1;exitX=1;exitY=0.5;exitDx=0;exitDy=0;entryX=0;entryY=0.5;entryDx=0;entryDy=0;endArrow=none;startFill=0;" parent="WIyWlLk6GJQsqaUBKTNV-1" source="GSAFhW5PHIJksps5YWDW-34" target="uGVkLpLAQE_LrdhUWMVq-46" edge="1">
          <mxGeometry relative="1" as="geometry" />
        </mxCell>
        <mxCell id="uGVkLpLAQE_LrdhUWMVq-52" value="1" style="edgeLabel;html=1;align=center;verticalAlign=middle;resizable=0;points=[];" parent="uGVkLpLAQE_LrdhUWMVq-51" vertex="1" connectable="0">
          <mxGeometry x="0.6909" y="2" relative="1" as="geometry">
            <mxPoint as="offset" />
          </mxGeometry>
        </mxCell>
        <mxCell id="uGVkLpLAQE_LrdhUWMVq-53" value="1" style="edgeLabel;html=1;align=center;verticalAlign=middle;resizable=0;points=[];" parent="uGVkLpLAQE_LrdhUWMVq-51" vertex="1" connectable="0">
          <mxGeometry x="-0.7636" y="-1" relative="1" as="geometry">
            <mxPoint as="offset" />
          </mxGeometry>
        </mxCell>
        <mxCell id="uGVkLpLAQE_LrdhUWMVq-54" value="Score" style="swimlane;fontStyle=0;align=center;verticalAlign=top;childLayout=stackLayout;horizontal=1;startSize=26;horizontalStack=0;resizeParent=1;resizeLast=0;collapsible=1;marginBottom=0;rounded=0;shadow=0;strokeWidth=1;fillColor=#dae8fc;strokeColor=#6c8ebf;" parent="WIyWlLk6GJQsqaUBKTNV-1" vertex="1">
          <mxGeometry x="400" y="920" width="200" height="210" as="geometry">
            <mxRectangle x="550" y="140" width="160" height="26" as="alternateBounds" />
          </mxGeometry>
        </mxCell>
        <mxCell id="uGVkLpLAQE_LrdhUWMVq-55" value="id: uuid" style="text;align=left;verticalAlign=top;spacingLeft=4;spacingRight=4;overflow=hidden;rotatable=0;points=[[0,0.5],[1,0.5]];portConstraint=eastwest;" parent="uGVkLpLAQE_LrdhUWMVq-54" vertex="1">
          <mxGeometry y="26" width="200" height="26" as="geometry" />
        </mxCell>
        <mxCell id="uGVkLpLAQE_LrdhUWMVq-56" value="title: String" style="text;align=left;verticalAlign=top;spacingLeft=4;spacingRight=4;overflow=hidden;rotatable=0;points=[[0,0.5],[1,0.5]];portConstraint=eastwest;rounded=0;shadow=0;html=0;" parent="uGVkLpLAQE_LrdhUWMVq-54" vertex="1">
          <mxGeometry y="52" width="200" height="26" as="geometry" />
        </mxCell>
        <mxCell id="uGVkLpLAQE_LrdhUWMVq-57" value="note: Float" style="text;align=left;verticalAlign=top;spacingLeft=4;spacingRight=4;overflow=hidden;rotatable=0;points=[[0,0.5],[1,0.5]];portConstraint=eastwest;rounded=0;shadow=0;html=0;" parent="uGVkLpLAQE_LrdhUWMVq-54" vertex="1">
          <mxGeometry y="78" width="200" height="26" as="geometry" />
        </mxCell>
        <mxCell id="uGVkLpLAQE_LrdhUWMVq-58" value="studentAnswerId: StudentAnswer" style="text;align=left;verticalAlign=top;spacingLeft=4;spacingRight=4;overflow=hidden;rotatable=0;points=[[0,0.5],[1,0.5]];portConstraint=eastwest;rounded=0;shadow=0;html=0;" parent="uGVkLpLAQE_LrdhUWMVq-54" vertex="1">
          <mxGeometry y="104" width="200" height="26" as="geometry" />
        </mxCell>
        <mxCell id="uGVkLpLAQE_LrdhUWMVq-59" value="aianswerId: AIAnswer" style="text;align=left;verticalAlign=top;spacingLeft=4;spacingRight=4;overflow=hidden;rotatable=0;points=[[0,0.5],[1,0.5]];portConstraint=eastwest;rounded=0;shadow=0;html=0;" parent="uGVkLpLAQE_LrdhUWMVq-54" vertex="1">
          <mxGeometry y="130" width="200" height="26" as="geometry" />
        </mxCell>
        <mxCell id="uGVkLpLAQE_LrdhUWMVq-60" value="comment: Text" style="text;align=left;verticalAlign=top;spacingLeft=4;spacingRight=4;overflow=hidden;rotatable=0;points=[[0,0.5],[1,0.5]];portConstraint=eastwest;rounded=0;shadow=0;html=0;" parent="uGVkLpLAQE_LrdhUWMVq-54" vertex="1">
          <mxGeometry y="156" width="200" height="26" as="geometry" />
        </mxCell>
        <mxCell id="uGVkLpLAQE_LrdhUWMVq-61" value="" style="line;html=1;strokeWidth=1;align=left;verticalAlign=middle;spacingTop=-1;spacingLeft=3;spacingRight=3;rotatable=0;labelPosition=right;points=[];portConstraint=eastwest;" parent="uGVkLpLAQE_LrdhUWMVq-54" vertex="1">
          <mxGeometry y="182" width="200" height="8" as="geometry" />
        </mxCell>
        <mxCell id="uGVkLpLAQE_LrdhUWMVq-62" style="edgeStyle=orthogonalEdgeStyle;rounded=0;orthogonalLoop=1;jettySize=auto;html=1;exitX=1;exitY=0.5;exitDx=0;exitDy=0;entryX=0;entryY=0.5;entryDx=0;entryDy=0;endArrow=none;startFill=0;" parent="WIyWlLk6GJQsqaUBKTNV-1" source="uGVkLpLAQE_LrdhUWMVq-26" target="uGVkLpLAQE_LrdhUWMVq-57" edge="1">
          <mxGeometry relative="1" as="geometry" />
        </mxCell>
        <mxCell id="uGVkLpLAQE_LrdhUWMVq-64" value="1" style="edgeLabel;html=1;align=center;verticalAlign=middle;resizable=0;points=[];" parent="uGVkLpLAQE_LrdhUWMVq-62" vertex="1" connectable="0">
          <mxGeometry x="-0.9195" y="1" relative="1" as="geometry">
            <mxPoint as="offset" />
          </mxGeometry>
        </mxCell>
        <mxCell id="uGVkLpLAQE_LrdhUWMVq-65" value="1" style="edgeLabel;html=1;align=center;verticalAlign=middle;resizable=0;points=[];" parent="uGVkLpLAQE_LrdhUWMVq-62" vertex="1" connectable="0">
          <mxGeometry x="0.8448" y="-3" relative="1" as="geometry">
            <mxPoint as="offset" />
          </mxGeometry>
        </mxCell>
      </root>
    </mxGraphModel>
  </diagram>
</mxfile>
